# xmcd
#
# Track frame offsets: 
#        150
#        12158
#        24339
#        39058
#        50596
#        66358
#        79524
#        97748
#        114434
#        132563
#        145071
#        162826
#
# Disc length: 2319 seconds
#
# Revision: 0
# Processed by: cddbd v1.5.2PL0 Copyright (c) Steve Scherf et al.
# Submitted via: ExactAudioCopy v1.0b1
#
DISCID=8c090d0c
DTITLE=Robin Ruddy - Sail Away
DYEAR=2000
DGENRE=Country
TTITLE0=Flying Down The Line
TTITLE1=Gypsy Bones
TTITLE2=It's All About Love
TTITLE3=Good Stuff
TTITLE4=I Wouldn't Throw That Away
TTITLE5=Just Hold Me
TTITLE6=I Left My Heart Behind
TTITLE7=With You Without Love
TTITLE8=Sail Away
TTITLE9=Why Can't I Let Go
TTITLE10=Twenty - Twenty Blind
TTITLE11=Pray For Rain
EXTD=
EXTT0=
EXTT1=
EXTT2=
EXTT3=
EXTT4=
EXTT5=
EXTT6=
EXTT7=
EXTT8=
EXTT9=
EXTT10=
EXTT11=
PLAYORDER=
